<svg xmlns="http://www.w3.org/2000/svg" xmlns:xlink="http://www.w3.org/1999/xlink" width="50" zoomAndPan="magnify" viewBox="0 0 37.5 37.499999" height="50" preserveAspectRatio="xMidYMid meet" version="1.0"><defs><g/></defs><g fill="#ffffff" fill-opacity="1"><g transform="translate(5.006126, 27.881036)"><g><path d="M 8.796875 -26.875 L 8.796875 -10.796875 C 8.796875 -9.191406 9.191406 -7.953125 9.984375 -7.078125 C 10.773438 -6.210938 11.9375 -5.78125 13.46875 -5.78125 C 15 -5.78125 16.171875 -6.210938 16.984375 -7.078125 C 17.804688 -7.953125 18.21875 -9.191406 18.21875 -10.796875 L 18.21875 -26.875 L 24.765625 -26.875 L 24.765625 -10.828125 C 24.765625 -8.429688 24.253906 -6.40625 23.234375 -4.75 C 22.210938 -3.09375 20.835938 -1.84375 19.109375 -1 C 17.390625 -0.15625 15.472656 0.265625 13.359375 0.265625 C 11.242188 0.265625 9.347656 -0.144531 7.671875 -0.96875 C 6.003906 -1.800781 4.6875 -3.050781 3.71875 -4.71875 C 2.75 -6.394531 2.265625 -8.429688 2.265625 -10.828125 L 2.265625 -26.875 Z M 8.796875 -26.875 "/></g></g></g><path stroke-linecap="round" transform="matrix(0.740132, 0, 0, 0.740132, 5.006126, 32.195721)" fill="none" stroke-linejoin="miter" d="M 1.501168 1.498336 L 34.972837 1.498336 " stroke="#ddbf8d" stroke-width="3" stroke-opacity="1" stroke-miterlimit="4"/></svg>